<svg width="36" height="36" fill="none" xmlns="http://www.w3.org/2000/svg"><path d="M25.553 28.618l-1.525-1.021-.809-4.044a.513.513 0 00-.217-.326l-1.614-1.08c.23-.697.388-1.404.453-2.152l.594.398a.513.513 0 00.384.077l2.837-.556a.51.51 0 00.325-.217l1.585-2.367 1.21-.238a.509.509 0 00.401-.6.513.513 0 00-.601-.402l-1.419.278a.51.51 0 00-.325.216l-1.585 2.368-2.42.475-.973-.65a6.293 6.293 0 00-.186-1.147c.53-.05.948-.268 1.193-.634.461-.689.196-1.712-.67-2.68l.782-1.168a6.345 6.345 0 015.307-2.817.509.509 0 00.512-.51.513.513 0 00-.511-.512 7.362 7.362 0 00-6.16 3.27l-.688 1.03a6.705 6.705 0 00-.85-.57l.688-1.03a7.361 7.361 0 00.675-6.94.513.513 0 00-.668-.277.509.509 0 00-.275.667 6.344 6.344 0 01-.583 5.98l-.78 1.168c-1.225-.43-2.273-.286-2.734.402-.245.367-.287.836-.132 1.346-.37.05-.748.138-1.13.264l-.973-.65-.483-2.42 1.585-2.368a.509.509 0 00.076-.383l-.284-1.417a.513.513 0 00-.601-.403.509.509 0 00-.401.6l.241 1.21-1.585 2.367a.509.509 0 00-.075.383l.566 2.835c.027.133.105.25.218.325l.594.397a9.12 9.12 0 00-1.261.794l-.006.004-.013.01c-.182.136-.36.281-.537.432l-1.614-1.08a.512.512 0 00-.384-.077l-4.047.794-1.525-1.021a.511.511 0 10-.567.848l1.701 1.139a.516.516 0 00.384.077l4.047-.795 1.247.834a11.78 11.78 0 00-1.442 1.846l-2.635.517a.51.51 0 00-.325.216L5.28 23.016l-1.955-.25a.51.51 0 10-.127 1.012l2.269.291a.51.51 0 00.489-.221l2.322-3.47 1.573-.309c-.687 1.41-1.086 2.92-1.12 4.31-.05 2.01.626 3.587 1.903 4.442 1.278.855 2.994.879 4.832.067 1.273-.562 2.517-1.506 3.557-2.679l.315 1.572-2.323 3.47a.51.51 0 00-.018.536l1.134 1.987a.51.51 0 00.697.192.51.51 0 00.19-.696l-.977-1.712 2.265-3.383a.51.51 0 00.076-.383l-.526-2.633a11.828 11.828 0 001.156-2.036l1.246.834.809 4.044c.026.133.104.25.217.326l1.702 1.139a.51.51 0 10.567-.848zM14.48 16.296a7.17 7.17 0 011.273-.631 5.158 5.158 0 011.534-.332c.364.494.874.971 1.462 1.365a5.93 5.93 0 001.82.831c.164.464.258.982.277 1.545a7.18 7.18 0 01-.098 1.417l-6.268-4.195zm5.971-2.141c1.242.831 1.804 1.906 1.56 2.271-.12.18-.505.242-.98.159-.537-.094-1.146-.354-1.714-.735-.569-.38-1.042-.844-1.334-1.305-.257-.408-.346-.787-.226-.966.245-.366 1.453-.255 2.694.576zM15.05 27.954c-1.285.567-2.469.655-3.394.263l3.263-4.876a.51.51 0 00-.85-.57l-3.264 4.876c-.716-.706-1.086-1.834-1.051-3.239.042-1.685.684-3.575 1.763-5.186a10.33 10.33 0 012.076-2.293l3.03 2.027-.285.424a.511.511 0 00.851.57l.284-.424 3.03 2.028a10.322 10.322 0 01-1.33 2.793c-1.078 1.611-2.58 2.926-4.123 3.607z" fill="#487FA6"/></svg>