<svg width="28" height="18" fill="none" xmlns="http://www.w3.org/2000/svg"><path d="M17.146 6.612a.41.41 0 00-.579-.032c-.166.149-.32.335-.457.554a.41.41 0 10.696.435c.096-.154.2-.28.309-.378a.41.41 0 00.031-.58zM5.013 3.598a1.069 1.069 0 000 2.136 1.069 1.069 0 000-2.135zm0 1.316a.248.248 0 110-.496.248.248 0 010 .496z" fill="#487FA6"/><path d="M23.878 9.706a6.035 6.035 0 00.231-1.71c0-2.463-1.141-5.499-4.346-6.635C16.9.347 14.089.925 11.829 1.39c-.97.2-1.834.377-2.51.383a1.52 1.52 0 00-.05-.728C9.096.475 8.573.068 7.936.007 7.565-.028 6.71.028 5.91 1.073c-.16.029-1.12.22-2.27.833C2.5 2.516.95 3.675.034 5.742a.41.41 0 00.04.402c.038.055.713.985 2.183 1.303l.012.014a3.687 3.687 0 002.775 1.226 4.096 4.096 0 001.138-.161.41.41 0 00.032.051c1.449 2.008 3.539 2.643 3.98 2.757.146.334.293.623.415.845.002.004.006.01 0 .022a.028.028 0 01-.02.016l-.102.02A1.289 1.289 0 009.444 13.5v.153c0 .226.183.41.41.41h2.004a.849.849 0 00.818-.624c.1-.365.216-.863.33-1.418.203.017.48.034.803.034.7 0 1.612-.078 2.448-.389.035.04.071.079.109.117l.081.077c-.376.13-.67.425-.797.808l-.286.855a.41.41 0 00.39.54h3.553a.848.848 0 00.843-.755l.068-.613c.705-.09 1.326-.297 1.853-.608.365.06 1.194.236 1.99.562.902.369 1.42.801 1.42 1.187 0 .181-.146.5-.554.85-1.097.942-3.088 1.327-4.177 1.473-2.567.343-5.85.212-9.756-.39a.41.41 0 00-.15.805c3.216.695 6.072 1.044 8.525 1.044.752 0 1.465-.032 2.14-.098 2.892-.281 4.46-1.115 5.265-1.765.78-.63 1.226-1.395 1.226-2.102 0-2.472-2.97-3.602-4.122-3.947zm-11.993 3.518c-.004.014-.017.019-.027.019h-1.517a.466.466 0 01.301-.2l.102-.02a.853.853 0 00.545-.361l.712.105c-.04.169-.08.322-.116.457zm7.45-.006a.028.028 0 01-.028.025h-2.984l.105-.316a.464.464 0 01.332-.306l.683-.166c.528.195 1.164.294 1.903.294h.04l-.051.469zm.138-1.29c-1.18.02-2.03-.224-2.525-.723-.435-.438-.626-1.085-.602-2.036a.41.41 0 00-.82-.02c-.018.712.077 1.31.287 1.803-.977.32-2.077.3-2.651.257.103-.57.195-1.16.259-1.7a.41.41 0 10-.815-.096c-.096.818-.26 1.753-.426 2.551l-.823-.122-.028-.058c-.343-.626-.92-1.841-.92-2.953a.41.41 0 10-.82 0c0 .511.1 1.033.245 1.52-.723-.284-1.935-.909-2.867-2.138.573-.302 1.03-.725 1.264-1.202a.41.41 0 10-.737-.36c-.28.572-1.101 1.059-1.996 1.184-.426.06-1.129.071-1.823-.296a6.25 6.25 0 00.672-.086.41.41 0 00-.147-.807c-1.913.348-2.946-.443-3.306-.806C1.557 4.473 2.6 3.4 4.002 2.644c.555-.3 1.066-.49 1.44-.606a.409.409 0 00.763.1C6.873.873 7.583.798 7.858.824c.3.028.551.213.626.459.08.262.02.407-.03.493-.161.27-.606.492-1.252.625a.41.41 0 10.165.803c.648-.133 1.14-.346 1.474-.636.85.097 1.92-.122 3.154-.375 2.16-.444 4.847-.997 7.494-.059a5.346 5.346 0 012.902 2.388c.587 1.002.898 2.202.898 3.473 0 1.212-.344 2.207-.994 2.878-.659.68-1.608 1.035-2.822 1.055zm6.786 3.188c-.75.606-1.726 1.015-2.829 1.278 1.003-.344 1.637-.747 2.031-1.084.542-.465.84-.989.84-1.474 0-1.4-2.153-2.114-3.394-2.41.265-.278.488-.597.668-.953.94.278 3.605 1.237 3.605 3.18 0 .45-.345.998-.921 1.463z" fill="#487FA6"/></svg>