<svg width="22" height="22" fill="none" xmlns="http://www.w3.org/2000/svg"><path d="M21.199 10.6a.986.986 0 00-.745.15.986.986 0 00-.385.502l-1.131-.494c.002-.077.004-.153.004-.227 0-.665-.084-1.325-.248-1.965l.507-.344c.322.282.789.366 1.198.188a1.14 1.14 0 00.6-1.45l-.239-.64a1.137 1.137 0 00-1.417-.698 1.127 1.127 0 00-.779 1.072l-.575.08a8.017 8.017 0 00-.257-.436.323.323 0 00-.546.344c.108.173.208.345.295.513a.451.451 0 00.461.238l1.038-.144a.323.323 0 00.26-.43.48.48 0 01.304-.623.499.499 0 01.611.31l.239.64a.501.501 0 01-.252.632.486.486 0 01-.608-.192.323.323 0 00-.457-.1l-.86.584a.45.45 0 00-.182.493 7.244 7.244 0 01.253 2.26c-.009.186.1.36.269.434L20.17 12a.323.323 0 00.446-.233l.052-.26a.344.344 0 01.406-.274c.188.037.31.22.274.407l-.265 1.348a.345.345 0 01-.423.27c-.177-.044-.29-.233-.253-.422l.007-.036a.323.323 0 00-.332-.385l-1.745.08a.453.453 0 00-.407.308 7.2 7.2 0 01-.637 1.402.45.45 0 00.042.52l.772.917a.323.323 0 00.47.026.48.48 0 01.81.286.48.48 0 01-.095.357l-.223.293a.5.5 0 01-.67.12.486.486 0 01-.184-.553.323.323 0 00-.176-.399l-1.112-.488a.45.45 0 00-.514.11 7.248 7.248 0 01-1.702 1.378.453.453 0 00-.217.462l.284 1.736a.323.323 0 00.439.247l.246-.098a.344.344 0 01.457.21c.06.17-.038.369-.217.44l-1.258.504a.344.344 0 01-.456-.21c-.06-.171.037-.37.216-.44l.034-.014a.323.323 0 00.143-.488L13.367 17.7a.453.453 0 00-.48-.174 7.25 7.25 0 01-3.268.085.453.453 0 00-.47.199l-1.016 1.593a.323.323 0 00.162.477l.036.013a.488.488 0 01.293.63.322.322 0 00-.02.111c0 .122-.036.215-.101.26-.066.047-.165.049-.28.007l-1.248-.455a.494.494 0 01-.296-.622.476.476 0 01.25-.274.525.525 0 01.403-.02l.029.01a.323.323 0 00.431-.268L8 17.405a.453.453 0 00-.241-.45 7.23 7.23 0 01-2.008-1.532.452.452 0 00-.501-.112l-1.523.624a.322.322 0 00-.163.451c.097.18.04.402-.131.515a.408.408 0 01-.553-.121l-.39-.562a.405.405 0 01.068-.55.392.392 0 01.56.071.323.323 0 00.499.02l1.072-1.213a.451.451 0 00.057-.516 7.246 7.246 0 01-.32-.652.323.323 0 00-.593.255c.087.201.18.398.282.588l-.769.869a1.038 1.038 0 00-1.188.07c-.43.34-.518.967-.198 1.427l.39.561c.325.469.97.6 1.437.293.35-.23.518-.63.46-1.021l1.122-.46a7.87 7.87 0 001.975 1.506l-.154 1.387a1.176 1.176 0 00-.539.114 1.117 1.117 0 00-.582.648c-.2.582.108 1.227.686 1.437l1.248.455c.125.046.251.069.373.069a.862.862 0 00.498-.152c.226-.159.361-.423.376-.733a1.13 1.13 0 00-.056-.816 1.132 1.132 0 00-.33-.416l.759-1.19a7.949 7.949 0 003.297-.085l.737 1.032a.991.991 0 00.248 1.639c.246.112.53.118.78.018l1.26-.503a1 1 0 00.586-1.253.985.985 0 00-.526-.578.997.997 0 00-.652-.06l-.2-1.217a7.896 7.896 0 001.643-1.33l.752.33c-.021.386.157.769.486.995a1.138 1.138 0 001.549-.26l.223-.292c.184-.24.263-.536.223-.835a1.121 1.121 0 00-.433-.748 1.122 1.122 0 00-1.182-.118l-.495-.59c.232-.407.427-.836.582-1.28l1.267-.057a.991.991 0 001.51.682.997.997 0 00.44-.646l.264-1.348A.993.993 0 0021.2 10.6zm-19.119.872l1.21.28c.027.168.06.339.098.51a.323.323 0 00.63-.142 7.226 7.226 0 01-.107-.59.453.453 0 00-.344-.377l-1.715-.396a.323.323 0 00-.395.312l-.002.2a.412.412 0 01-.411.408.395.395 0 01-.398-.402l.011-1.245a.434.434 0 01.133-.307.388.388 0 01.283-.113.407.407 0 01.393.407.323.323 0 00.397.316l1.702-.4a.453.453 0 00.343-.378 7.151 7.151 0 01.898-2.632.451.451 0 00-.047-.516l-.811-.954a.322.322 0 00-.504.015l-.07.093a.314.314 0 01-.454.052c-.128-.106-.145-.307-.039-.447l.541-.715a.316.316 0 01.518.359.323.323 0 00.144.47l1.135.49a.45.45 0 00.511-.11 7.245 7.245 0 011.78-1.42.453.453 0 00.224-.459l-.261-1.74a.323.323 0 00-.435-.253l-.248.095a.344.344 0 01-.454-.215.36.36 0 01.223-.438L7.824.743a.344.344 0 01.454.215.362.362 0 01-.223.439l-.034.013a.323.323 0 00-.15.485l.996 1.436a.453.453 0 00.477.18 7.262 7.262 0 011.726-.207c.19 0 .361-.12.425-.299l.33-.922a.323.323 0 00-.208-.417.523.523 0 01-.363-.56.509.509 0 01.196-.341.556.556 0 01.41-.115l.452.057a.537.537 0 01.477.578.52.52 0 01-.389.45.323.323 0 00-.239.35l.115 1a.45.45 0 00.35.387 7.174 7.174 0 012.055.798c.16.093.365.077.509-.04l1.366-1.108a.323.323 0 00-.003-.504l-.208-.165a.344.344 0 01-.045-.5c.12-.137.34-.15.49-.031l1.062.843a.344.344 0 01.045.5c-.12.137-.34.15-.49.03l-.029-.022a.323.323 0 00-.494.118l-.732 1.588a.453.453 0 00.087.503c.046.047.092.095.145.154a.323.323 0 10.476-.437 8.508 8.508 0 00-.066-.07l.532-1.154a.99.99 0 00.928-1.716l-1.062-.843a1 1 0 00-1.378.112.984.984 0 00-.242.744c.02.224.118.435.272.596l-.957.777a7.818 7.818 0 00-1.985-.772l-.071-.62c.328-.181.558-.515.6-.898A1.186 1.186 0 0012.393.066L11.94.01a1.2 1.2 0 00-.887.247 1.15 1.15 0 00-.44.773 1.17 1.17 0 00.507 1.107l-.187.523a7.909 7.909 0 00-1.612.194L8.6 1.81A.991.991 0 008.372.17a.997.997 0 00-.78-.03L6.327.627a1 1 0 00-.604 1.244c.087.26.27.469.518.586.203.096.434.12.652.069l.183 1.219a7.886 7.886 0 00-1.727 1.378l-.73-.316a.967.967 0 00-.365-.933.954.954 0 00-.712-.185.955.955 0 00-.635.372l-.54.715a.97.97 0 00.14 1.333.953.953 0 001.183.037l.489.575a7.787 7.787 0 00-.892 2.614l-1.25.293a1.057 1.057 0 00-.947-.664 1.032 1.032 0 00-.748.294c-.208.2-.328.48-.33.766L0 11.269a1.045 1.045 0 001.044 1.054c.51 0 .94-.367 1.036-.85z" fill="#487FA6"/><path d="M9.47 9.71a.323.323 0 10-.302-.571c-.772.409-1.651.3-2.091-.257-.247-.313-.332-.728-.24-1.169.098-.461.376-.892.783-1.213.407-.321.891-.49 1.363-.477.45.012.833.192 1.08.505.37.47.366 1.172-.012 1.788a.323.323 0 10.55.338c.521-.85.509-1.84-.031-2.526-.367-.466-.925-.733-1.57-.75-.622-.019-1.254.2-1.78.615A2.771 2.771 0 006.206 7.58c-.133.631-.004 1.235.364 1.701.386.491.992.75 1.644.75A2.69 2.69 0 009.47 9.71zm6.266-2.896c0-.67-.623-1.215-1.389-1.215-.765 0-1.388.545-1.388 1.215s.623 1.214 1.388 1.214c.766 0 1.39-.545 1.39-1.214zm-2.132 0c0-.314.334-.569.743-.569.41 0 .743.255.743.569 0 .313-.333.568-.743.568s-.743-.255-.743-.568zm-1.615 5.549a1.49 1.49 0 00-1.488-1.487 1.49 1.49 0 00-1.488 1.487c0 .82.667 1.488 1.488 1.488a1.49 1.49 0 001.488-1.488zm-2.33 0a.843.843 0 011.684 0 .843.843 0 01-1.684 0zm6.54-.606a1.158 1.158 0 00-2.314 0 1.157 1.157 0 002.314 0zm-1.669 0a.512.512 0 111.024 0 .512.512 0 01-1.024 0zm-2.57 5.204c.626 0 1.135-.508 1.135-1.134a1.135 1.135 0 00-2.268 0c0 .626.508 1.134 1.134 1.134zm0-1.622a.489.489 0 110 .977.489.489 0 010-.977zm-5.074-.284a1.17 1.17 0 001.168-1.168 1.17 1.17 0 00-1.168-1.167 1.17 1.17 0 00-1.167 1.167 1.17 1.17 0 001.167 1.168zm0-1.69a.523.523 0 11-.001 1.045.523.523 0 01.001-1.045zm6.576-3.519a.323.323 0 00-.323-.323h-.286a.323.323 0 100 .646h.286a.323.323 0 00.323-.323zm-4.419 5.967h.293a.323.323 0 100-.645h-.293a.323.323 0 100 .646zM6.324 11.11a.323.323 0 100-.645H6.04a.323.323 0 100 .646h.283zm5.736-5.649a.323.323 0 000-.645h-.394a.323.323 0 100 .645h.393zm2.147 8.656a.323.323 0 100 .645h.434a.323.323 0 100-.646h-.434z" fill="#487FA6"/></svg>