<svg width="34" height="53" fill="none" xmlns="http://www.w3.org/2000/svg"><path d="M31.63 11.602l-9.318-9.32a7.816 7.816 0 00-11.04 0l-9.32 9.32C.857 12.697 0 14.768 0 16.316v33.326A3.362 3.362 0 003.359 53h26.866a3.363 3.363 0 003.358-3.358V16.316c0-1.549-.858-3.62-1.953-4.714zm-.086 38.04a1.321 1.321 0 01-1.32 1.32H3.359a1.322 1.322 0 01-1.32-1.32V16.316c0-1.021.634-2.55 1.356-3.273l9.319-9.319a5.776 5.776 0 018.157 0l9.319 9.32c.722.72 1.355 2.25 1.355 3.272v33.326z" fill="#487FA6"/><path d="M12.308 31.264a3.672 3.672 0 002.597-6.267c-1.388-1.389-3.807-1.387-5.193 0a3.671 3.671 0 002.596 6.267zm-1.154-4.825a1.632 1.632 0 112.309 2.308 1.672 1.672 0 01-2.31 0 1.635 1.635 0 010-2.308zm5.637-15.159a3.54 3.54 0 002.506-6.044c-1.34-1.339-3.674-1.338-5.01 0a3.54 3.54 0 002.504 6.044zM15.73 6.678a1.503 1.503 0 112.123 2.126 1.503 1.503 0 01-2.123-2.126zm2.948 27.285a3.672 3.672 0 105.192 0 3.647 3.647 0 00-5.192 0zm3.751 3.75a1.632 1.632 0 11-2.309-2.307 1.632 1.632 0 012.31 2.308zm1.505-12.78a1.017 1.017 0 00-1.442 0L9.65 37.776a1.02 1.02 0 001.441 1.442l12.844-12.843a1.017 1.017 0 000-1.442z" fill="#487FA6"/></svg>