<svg width="56" height="56" fill="none" xmlns="http://www.w3.org/2000/svg"><path d="M54.188 26.56a1.062 1.062 0 00-1.063 1.063 25.5 25.5 0 11-9.488-19.845h-4.48a1.062 1.062 0 100 2.125h7.25A1.066 1.066 0 0047.47 8.84V1.59a1.062 1.062 0 10-2.125 0v4.844a27.623 27.623 0 10-7.148 46.71 27.624 27.624 0 0017.053-25.52 1.063 1.063 0 00-1.063-1.063z" fill="#487FA6"/><path d="M33.494 19.997L28.08 34.872a1.063 1.063 0 101.996.727l5.414-14.875a1.062 1.062 0 10-1.996-.727zm-14.836 5.704a3.9 3.9 0 00-1.15-2.774c-1.482-1.484-4.065-1.484-5.548 0a3.896 3.896 0 00-1.15 2.774 1.062 1.062 0 102.125 0 1.787 1.787 0 01.527-1.272 1.84 1.84 0 012.544 0 1.799 1.799 0 010 2.543l-4.885 4.885a1.062 1.062 0 00.752 1.814h5.723a1.062 1.062 0 100-2.125h-3.158l3.07-3.071a3.894 3.894 0 001.15-2.774zm6.057 7.969a1.063 1.063 0 001.063-1.062v-1.584h.548a1.062 1.062 0 100-2.125h-.549v-6.06a1.063 1.063 0 00-1.95-.583l-4.67 7.122a1.062 1.062 0 00.888 1.646h3.607v1.584a1.064 1.064 0 001.063 1.063zm-2.703-4.77l1.64-2.502V28.9h-1.64zm17.161 3.708a1.062 1.062 0 102.125 0v-2.187a9.599 9.599 0 012.83-6.83 1.062 1.062 0 00-.751-1.814h-6.281a1.062 1.062 0 100 2.125h4.04a11.7 11.7 0 00-1.963 6.52v2.186z" fill="#487FA6"/></svg>