<svg width="49" height="57" fill="none" xmlns="http://www.w3.org/2000/svg"><path d="M47.949 33.222l-4.057-2.01-3.23-4.535a.84.84 0 00-.563-.343l-2.802-.41v-2.037a6.577 6.577 0 00-1.86-4.584 11.04 11.04 0 00-.637-3.152l2.425-.533a.84.84 0 00.595-.497l2.367-5.668 2.453-1.866a.84.84 0 10-1.018-1.338L38.99 8.252a.838.838 0 00-.267.345l-2.288 5.473-2.338.514a11.432 11.432 0 00-4.97-4.774l.644-3.493a4.914 4.914 0 012.322-3.339l2.334-1.39a.841.841 0 10-.86-1.44l-2.334 1.386a6.594 6.594 0 00-3.115 4.48l-.582 3.156a11.072 11.072 0 00-6.655 0L20.3 6.015a6.598 6.598 0 00-3.116-4.481L14.849.147a.84.84 0 10-.859 1.441l2.334 1.388a4.915 4.915 0 012.322 3.34l.643 3.492a11.432 11.432 0 00-4.97 4.774l-2.338-.514L9.697 8.6a.838.838 0 00-.267-.345L6.797 6.253a.84.84 0 00-1.018 1.338L8.23 9.457l2.368 5.668a.84.84 0 00.593.493l2.423.533a11.04 11.04 0 00-.636 3.152 6.577 6.577 0 00-1.861 4.584v2.037l-2.802.41a.838.838 0 00-.563.343l-3.228 4.536-4.057 2.01a.841.841 0 00.746 1.507l4.246-2.104a.841.841 0 00.312-.265l3.144-4.415 2.204-.322v10.203a13.006 13.006 0 001.227 5.524l-2.443 1.07a.838.838 0 00-.476.558L7.583 52.06l-2.491 3.563a.84.84 0 001.377.964l2.58-3.684a.84.84 0 00.124-.27l1.779-6.836 2.21-.968a13.079 13.079 0 0022.097 0l2.21.968 1.78 6.834a.838.838 0 00.124.27l2.58 3.684a.842.842 0 001.442.01.842.842 0 00-.07-.972l-2.493-3.56-1.843-7.085a.836.836 0 00-.476-.557l-2.44-1.07a13.01 13.01 0 001.226-5.524V27.62l2.203.322 3.145 4.415a.84.84 0 00.311.265l4.246 2.104a.841.841 0 00.747-1.507l-.002.002zM24.209 10.34a9.628 9.628 0 019.356 7.61 6.556 6.556 0 00-2.872-.667H17.724a6.556 6.556 0 00-2.872.666 9.628 9.628 0 019.356-7.61zm-3.376 8.624h6.751a3.481 3.481 0 01-6.751 0zm3.375 30.271a11.42 11.42 0 01-11.407-11.407v-13.94a4.928 4.928 0 014.923-4.924h1.395a5.168 5.168 0 004.249 4.248v18.927a.84.84 0 101.68 0V23.212a5.167 5.167 0 004.252-4.248h1.393a4.928 4.928 0 014.923 4.923v13.94a11.42 11.42 0 01-11.408 11.408z" fill="#487FA6"/><path d="M33.574 29.827a.84.84 0 00-.84.84v2.883a.84.84 0 101.681 0v-2.882a.841.841 0 00-.84-.84z" fill="#487FA6"/></svg>