<svg width="20" height="21" fill="none" xmlns="http://www.w3.org/2000/svg"><path d="M20 8.4c0 .2-.104.4-.312.6l-4.363 4.2 1.033 6.1c.008 0 .012.1.012.2 0 .2-.044.3-.132.4-.08.1-.2.2-.361.2-.152 0-.312 0-.48-.1L10 17.1 4.603 20c-.176.1-.336.1-.48.1-.169 0-.297-.1-.385-.2-.08-.1-.12-.2-.12-.4 0 0 .008-.1.024-.2l1.034-6.1L.3 9c-.2-.2-.3-.4-.3-.6 0-.3.224-.5.673-.5L6.707 7 9.41 1.5c.152-.3.349-.5.589-.5s.437.2.589.5L13.293 7l6.034.9c.449 0 .673.2.673.5z" fill="#E67E22"/><path d="M20 7.4c0 .2-.104.4-.312.6l-4.363 4.2 1.033 6.1c.008 0 .012.1.012.2 0 .2-.044.3-.132.4-.08.1-.2.2-.361.2-.152 0-.312 0-.48-.1L10 16.1 4.603 19c-.176.1-.336.1-.48.1-.169 0-.297-.1-.385-.2-.08-.1-.12-.2-.12-.4 0 0 .008-.1.024-.2l1.034-6.1L.3 8c-.2-.2-.3-.4-.3-.6 0-.3.224-.5.673-.5L6.707 6 9.41.5c.153-.3.35-.5.59-.5s.437.2.589.5L13.293 6l6.034.9c.449 0 .673.2.673.5z" fill="#F1C40F"/></svg>