<svg width="62" height="62" fill="none" xmlns="http://www.w3.org/2000/svg"><g clip-path="url(#clip0)" fill="#1C1C1C"><path d="M60.539 19.842L31.545.168a.97.97 0 00-1.09 0L1.46 19.842a.97.97 0 00-.426.803V61.03c0 .536.435.971.971.971h57.988a.97.97 0 00.97-.97V20.644a.97.97 0 00-.425-.803zM23.816 60.058H13.332V49.574h2.2v5.242c0 .536.435.971.971.971h4.142a.97.97 0 00.97-.97v-5.243h2.201V60.06zM11.261 24.852v-2.2h39.478v2.2H11.261zm6.213 28.994v-4.272h2.2v4.272h-2.2zm6.342-6.213H13.332V37.148h2.2v5.242a.97.97 0 00.97.971h4.143a.97.97 0 00.97-.97v-5.243h2.201v10.485zm-6.342-6.213v-4.272h2.2v4.272h-2.2zm18.768 18.639H25.758V49.574h2.2v5.242c0 .536.435.971.971.971h4.142a.97.97 0 00.97-.97v-5.243h2.201V60.06zM29.9 53.846v-4.272h2.2v4.272h-2.2zm29.123 6.213H50.61V39.284a.97.97 0 00-1.942 0v20.774H38.184V48.603a.97.97 0 00-.971-.97H25.758V36.177a.97.97 0 00-.971-.97H13.332v-8.414h35.336v8.35a.97.97 0 001.942 0v-8.35h1.1a.97.97 0 00.97-.97V21.68a.97.97 0 00-.97-.971H10.29a.97.97 0 00-.97.97v4.143c0 .536.434.97.97.97h1.1V60.06H2.977v-38.9L31 2.145 59.023 21.16v38.898z"/><path d="M35.142 8.284h-8.284a.97.97 0 000 1.941h8.284a.97.97 0 100-1.941zm0 4.142h-8.284a.97.97 0 000 1.941h8.284a.97.97 0 100-1.941zm0 4.142h-8.284a.97.97 0 000 1.941h8.284a.97.97 0 100-1.941zM20.645 44.526h-4.142a.97.97 0 100 1.942h4.142a.97.97 0 000-1.942zm0 12.426h-4.142a.971.971 0 000 1.942h4.142a.97.97 0 000-1.942zm12.425 0h-4.14a.971.971 0 000 1.942h4.142a.97.97 0 100-1.942z"/></g><defs><clipPath id="clip0"><path fill="#fff" d="M0 0h62v62H0z"/></clipPath></defs></svg>