<svg width="70" height="65" fill="none" xmlns="http://www.w3.org/2000/svg"><path d="M1.119 27.974h6.208a16.642 16.642 0 001.576 3.791l-4.394 4.392a1.12 1.12 0 000 1.583l4.747 4.748a1.12 1.12 0 001.582 0l4.394-4.394a16.632 16.632 0 003.79 1.575v6.208a1.12 1.12 0 001.12 1.119h6.713c.618 0 1.119-.5 1.119-1.119v-6.208a16.634 16.634 0 003.79-1.575l4.394 4.394a1.15 1.15 0 001.582 0l4.748-4.748a1.119 1.119 0 000-1.583l-4.395-4.392a16.645 16.645 0 001.576-3.791h6.208a1.12 1.12 0 001.119-1.12v-6.713c0-.617-.5-1.119-1.119-1.119h-6.208a16.65 16.65 0 00-1.576-3.79l4.394-4.393a1.12 1.12 0 000-1.583L37.74 4.508a1.12 1.12 0 00-1.582 0l-4.394 4.395a16.677 16.677 0 00-3.79-1.576V1.119C27.974.5 27.473 0 26.854 0h-6.713a1.12 1.12 0 00-1.119 1.119v6.208a16.677 16.677 0 00-3.79 1.576l-4.394-4.395a1.152 1.152 0 00-1.582 0L4.508 9.256a1.12 1.12 0 000 1.583l4.395 4.392a16.647 16.647 0 00-1.576 3.791H1.119A1.12 1.12 0 000 20.142v6.713c0 .618.5 1.119 1.119 1.119zm1.119-6.714h5.964c.526 0 .98-.366 1.093-.88a14.397 14.397 0 011.96-4.715 1.12 1.12 0 00-.15-1.395l-4.223-4.223 3.165-3.165 4.222 4.222a1.12 1.12 0 001.396.152 14.417 14.417 0 014.716-1.96 1.12 1.12 0 00.88-1.094V2.238h4.475v5.964c0 .526.366.98.88 1.094a14.417 14.417 0 014.715 1.96 1.12 1.12 0 001.396-.152l4.222-4.222 3.165 3.165-4.222 4.222a1.12 1.12 0 00-.152 1.396 14.394 14.394 0 011.96 4.716c.112.514.567.88 1.093.88h5.965v4.476h-5.965c-.526 0-.98.366-1.093.88a14.378 14.378 0 01-1.96 4.714 1.12 1.12 0 00.152 1.395l4.222 4.222-3.165 3.167-4.222-4.223a1.12 1.12 0 00-1.396-.152 14.385 14.385 0 01-4.714 1.96 1.12 1.12 0 00-.881 1.094v5.964H21.26v-5.964a1.12 1.12 0 00-.88-1.093 14.386 14.386 0 01-4.715-1.96 1.12 1.12 0 00-1.396.15l-4.222 4.224-3.165-3.166 4.222-4.222a1.12 1.12 0 00.152-1.396 14.4 14.4 0 01-1.96-4.717 1.118 1.118 0 00-1.094-.878H2.238V21.26z" fill="#1C1C1C"/><path d="M23.498 32.45a8.952 8.952 0 100-17.903 8.952 8.952 0 00-8.952 8.951 8.962 8.962 0 008.952 8.952zm0-15.666a6.714 6.714 0 11-6.714 6.714 6.72 6.72 0 016.714-6.714z" fill="#1C1C1C"/><path d="M23.498 35.806c6.798 0 12.308-5.51 12.308-12.308s-5.51-12.309-12.308-12.309S11.189 16.7 11.189 23.498c.009 6.794 5.514 12.3 12.309 12.308zm0-22.379c5.562 0 10.07 4.509 10.07 10.07 0 5.563-4.508 10.072-10.07 10.072s-10.07-4.51-10.07-10.071c.005-5.559 4.51-10.065 10.07-10.07zM63.78 51.472V42.52c0-.617-.5-1.119-1.119-1.119h-2.238V32.45c0-.617-.5-1.118-1.119-1.118h-10.07a1.12 1.12 0 00-1.12 1.119V41.4H42.52a1.12 1.12 0 00-1.119 1.12v8.95H5.595A5.602 5.602 0 000 57.068v2.237A5.601 5.601 0 005.595 64.9H63.78a5.601 5.601 0 005.595-5.595v-2.238a5.602 5.602 0 00-5.595-5.594zm-2.238 0H53.71v-7.833h7.832v7.833zm-11.19-17.904h7.834v7.833h-7.833v-7.833zM43.64 43.64h7.833v7.833H43.64V43.64zm23.498 15.665a3.357 3.357 0 01-3.357 3.357H5.595a3.357 3.357 0 01-3.357-3.357v-2.238a3.357 3.357 0 013.357-3.356H63.78a3.357 3.357 0 013.357 3.356v2.238z" fill="#1C1C1C"/><path d="M34.688 54.829a3.357 3.357 0 100 6.714 3.357 3.357 0 000-6.714zm0 4.475a1.119 1.119 0 110-2.237 1.119 1.119 0 010 2.237zm-11.19-4.475a3.357 3.357 0 100 6.714 3.357 3.357 0 000-6.714zm0 4.475a1.119 1.119 0 110-2.237 1.119 1.119 0 010 2.237zm22.379-4.475a3.357 3.357 0 100 6.714 3.357 3.357 0 000-6.714zm0 4.475a1.119 1.119 0 110-2.237 1.119 1.119 0 010 2.237zm-33.568-4.475a3.357 3.357 0 100 6.714 3.357 3.357 0 000-6.714zm0 4.475a1.119 1.119 0 110-2.237 1.119 1.119 0 010 2.237zm44.757-4.475a3.357 3.357 0 10.001 6.714 3.357 3.357 0 000-6.714zm0 4.475a1.119 1.119 0 110-2.237 1.119 1.119 0 010 2.237z" fill="#1C1C1C"/></svg>