<svg width="64" height="64" fill="none" xmlns="http://www.w3.org/2000/svg"><path d="M45.32 21.57l-.684-2.254a4.896 4.896 0 00-9.272 0l-.685 2.254a12.66 12.66 0 00-.353 5.867 5.518 5.518 0 002.842 3.845l-.767 17.145a3.378 3.378 0 00.853 2.626 3.726 3.726 0 005.5 0 3.333 3.333 0 00.853-2.555l-.77-17.218a5.517 5.517 0 002.837-3.843 12.66 12.66 0 00-.353-5.867zm-1.748 5.496a3.382 3.382 0 01-2.213 2.548 1.065 1.065 0 00-.69 1.046l.81 18.007a1.23 1.23 0 01-.32.966 1.648 1.648 0 01-2.319 0 1.28 1.28 0 01-.313-1.037l.804-17.936a1.066 1.066 0 00-.69-1.046 3.382 3.382 0 01-2.213-2.548 10.52 10.52 0 01.293-4.87l.685-2.256a2.766 2.766 0 015.188 0l.685 2.255c.477 1.578.578 3.247.293 4.87zM28.8 16c-.589 0-1.067.478-1.067 1.067v9.158l-2.887 2.887a1.067 1.067 0 00-.313.808l.934 18.667c.022.402-.124.796-.403 1.087a1.502 1.502 0 01-2.134 0 1.452 1.452 0 01-.403-1.087l.94-18.667a1.067 1.067 0 00-.312-.808l-2.888-2.887v-9.158a1.067 1.067 0 00-2.134 0v9.6c0 .283.113.554.313.754l2.865 2.866-.91 18.196a3.603 3.603 0 107.198 0l-.91-18.196 2.865-2.866c.2-.2.313-.471.313-.754v-9.6c0-.59-.478-1.067-1.067-1.067z" fill="#1C1C1C"/><path d="M22.4 16c-.59 0-1.067.478-1.067 1.067V25.6a1.067 1.067 0 002.134 0v-8.533c0-.59-.478-1.067-1.067-1.067zm3.2 0c-.59 0-1.067.478-1.067 1.067V25.6a1.067 1.067 0 002.134 0v-8.533c0-.59-.478-1.067-1.067-1.067z" fill="#1C1C1C"/><path d="M32 0C14.327 0 0 14.327 0 32c0 17.673 14.327 32 32 32 17.673 0 32-14.327 32-32C63.98 14.335 49.665.02 32 0zm0 61.867C15.505 61.867 2.133 48.495 2.133 32S15.505 2.133 32 2.133 61.867 15.505 61.867 32C61.847 48.487 48.487 61.848 32 61.867z" fill="#1C1C1C"/><path d="M35.463 52.023a1.067 1.067 0 00-1.207-.954h.004a19.594 19.594 0 01-4.52 0 1.067 1.067 0 10-.249 2.119 21.61 21.61 0 005.014 0 1.067 1.067 0 00.958-1.165zM48.32 18.255a1.067 1.067 0 00-1.503-.132l-.004.004a1.067 1.067 0 00-.128 1.503c6.431 7.634 5.94 18.924-1.132 25.97a1.067 1.067 0 001.506 1.511c7.858-7.828 8.406-20.372 1.261-28.856zm-11.288-6.992a21.529 21.529 0 00-12.556.771 1.067 1.067 0 00.748 1.996 19.378 19.378 0 0111.306-.693 1.067 1.067 0 10.502-2.074zM18.399 45.547A19.077 19.077 0 0112.799 32a19.059 19.059 0 013.671-11.294 1.067 1.067 0 10-1.723-1.256c-6.167 8.478-5.26 20.18 2.14 27.607a1.068 1.068 0 001.512-1.51z" fill="#1C1C1C"/></svg>