<svg width="68" height="68" fill="none" xmlns="http://www.w3.org/2000/svg"><path d="M43.067 43.181V32.867c0-1.875-1.526-3.4-3.4-3.4H7.933a3.404 3.404 0 00-3.4 3.4V43.18A5.677 5.677 0 000 48.734v18.133C0 67.492.508 68 1.133 68h4.534c.625 0 1.133-.508 1.133-1.133v-3.4h34v3.4c0 .625.508 1.133 1.133 1.133h4.534c.625 0 1.133-.508 1.133-1.133V48.733a5.677 5.677 0 00-4.533-5.552zM6.8 32.867c0-.625.509-1.133 1.133-1.133h31.734c.624 0 1.133.508 1.133 1.133v10.2h-2.267v-4.534c0-1.874-1.525-3.4-3.4-3.4h-6.8a3.404 3.404 0 00-3.4 3.4v4.534h-2.266v-4.534c0-1.874-1.526-3.4-3.4-3.4h-6.8a3.404 3.404 0 00-3.4 3.4v4.534H6.8v-10.2zm29.467 5.666v4.534H27.2v-4.534c0-.624.509-1.133 1.133-1.133h6.8c.625 0 1.134.509 1.134 1.133zm-15.867 0v4.534h-9.067v-4.534c0-.624.51-1.133 1.134-1.133h6.8c.624 0 1.133.509 1.133 1.133zm24.933 27.2h-2.266v-3.4c0-.625-.508-1.133-1.134-1.133H5.667c-.626 0-1.134.508-1.134 1.133v3.4H2.267v-9.066h43.066v9.067zm0-11.333H2.267v-5.666c0-1.875 1.525-3.4 3.4-3.4h36.266c1.875 0 3.4 1.525 3.4 3.4V54.4zm21.534-11.333H51c-.626 0-1.133.508-1.133 1.133v17h2.266v-6.8h13.6v6.8H68v-17c0-.625-.508-1.133-1.133-1.133zm-1.134 9.067h-13.6v-6.8h13.6v6.8z" fill="#1C1C1C"/><path d="M61.2 47.6h-4.533v2.267H61.2V47.6zm3.342-13.959l-2.267-6.8a1.134 1.134 0 00-1.075-.774h-4.533c-.489 0-.92.312-1.076.775l-2.267 6.8a1.133 1.133 0 001.076 1.492h3.4v3.4h-2.267V40.8h6.8v-2.266h-2.266v-3.4h3.4a1.136 1.136 0 001.076-1.493zm-8.57-.774l1.512-4.533h2.9l1.51 4.533h-5.922z" fill="#1C1C1C"/><path d="M67.33 14.832L34.464.099a1.139 1.139 0 00-.928 0L.67 14.832c-.408.183-.67.588-.67 1.035v13.6h2.267V16.6L34 2.375l31.733 14.226v12.866H68v-13.6c0-.447-.262-.852-.67-1.035z" fill="#1C1C1C"/><path d="M41.823 15.679l-2.236.376A5.673 5.673 0 0134 22.667 5.673 5.673 0 0128.333 17a5.673 5.673 0 017.557-5.343l.755-2.138A7.908 7.908 0 0034 9.067c-4.375 0-7.933 3.559-7.933 7.933 0 4.375 3.558 7.934 7.933 7.934s7.933-3.56 7.933-7.934c0-.444-.037-.888-.11-1.321z" fill="#1C1C1C"/><path d="M41.132 9.399L34 16.53l-1.465-1.465-1.603 1.602 2.267 2.267a1.13 1.13 0 001.602 0l7.933-7.933-1.602-1.603z" fill="#1C1C1C"/></svg>