<svg width="60" height="69" fill="none" xmlns="http://www.w3.org/2000/svg"><path d="M40.936 26.366l-2.499 29.62c-.112 1.327 1.89 1.508 2.002.17l2.5-29.621a1.005 1.005 0 00-2.003-.169zm-22.958-.916a1.005 1.005 0 00-.916 1.085l2.499 29.621c.113 1.34 2.114 1.157 2.002-.169l-2.5-29.62a1.005 1.005 0 00-1.085-.917zm11.017 1v29.621a1.005 1.005 0 102.01 0v-29.62a1.005 1.005 0 10-2.01 0z" fill="#1C1C1C"/><path d="M55.366 7.76H39.568V4.229A4.234 4.234 0 0035.338 0H24.662a4.234 4.234 0 00-4.23 4.229V7.76H4.635A4.64 4.64 0 000 12.394a4.64 4.64 0 004.634 4.634h1.08l3.759 44.547a7.65 7.65 0 007.624 7.008h25.806a7.65 7.65 0 007.624-7.008l.521-6.176a1.005 1.005 0 00-2.002-.169l-.521 6.176c-.245 2.898-2.714 5.168-5.622 5.168H17.097c-2.908 0-5.378-2.27-5.622-5.168L7.731 17.028h2.974a1.005 1.005 0 000-2.01H4.634a2.628 2.628 0 01-2.625-2.624 2.628 2.628 0 012.625-2.625h50.732a2.628 2.628 0 012.625 2.625 2.628 2.628 0 01-2.625 2.625H15.405a1.005 1.005 0 100 2.009h36.864l-2.828 33.515a1.005 1.005 0 002.003.169l2.841-33.684h1.081A4.64 4.64 0 0060 12.394a4.64 4.64 0 00-4.634-4.634zm-17.807 0H22.44V4.229c0-1.224.996-2.22 2.22-2.22h10.678c1.224 0 2.22.996 2.22 2.22V7.76z" fill="#1C1C1C"/></svg>