<svg width="14" height="17" fill="none" xmlns="http://www.w3.org/2000/svg"><path d="M6.799 1.904c-2.695 0-4.887 2.184-4.887 4.868 0 2.685 2.192 4.869 4.887 4.869 2.695 0 4.887-2.184 4.887-4.869 0-2.684-2.192-4.868-4.887-4.868zm0 9.072c-2.328 0-4.223-1.885-4.223-4.204 0-2.318 1.895-4.204 4.223-4.204s4.223 1.886 4.223 4.204c0 2.319-1.895 4.204-4.223 4.204z" fill="#487FA6"/><path d="M6.8 0C3.05 0 0 3.038 0 6.773c0 1.362.352 2.748 1.046 4.119.55 1.086 1.316 2.165 2.275 3.207 1.627 1.767 3.231 2.805 3.299 2.848a.331.331 0 00.358 0c.068-.043 1.672-1.081 3.299-2.848.96-1.042 1.725-2.121 2.275-3.207.694-1.37 1.046-2.757 1.046-4.12C13.598 3.039 10.548 0 6.8 0zm3 13.637a18.97 18.97 0 01-3 2.63 18.965 18.965 0 01-3.001-2.63C2.369 12.081.664 9.627.664 6.773.664 3.404 3.416.664 6.8.664s6.135 2.74 6.135 6.109c0 2.854-1.705 5.308-3.135 6.864z" fill="#487FA6"/></svg>