<svg width="42" height="42" fill="none" xmlns="http://www.w3.org/2000/svg"><path d="M21 42c11.598 0 21-9.402 21-21S32.598 0 21 0 0 9.402 0 21s9.402 21 21 21z" fill="#D42428"/><path d="M35.849 6.148c8.2 8.202 8.201 21.5 0 29.7-8.201 8.202-21.5 8.202-29.7 0l29.7-29.7z" fill="#CC202D"/><path d="M41.578 25.206L31.184 14.813l-12.258 1.395-7.415 11.48 13.855 13.854c8.146-1.723 14.55-8.167 16.212-16.336z" fill="#BA202E"/><path d="M31.99 16.947a3.186 3.186 0 00-3.186-3.187H13.858a3.186 3.186 0 00-3.185 3.187v8.547a3.186 3.186 0 003.185 3.188h14.945a3.186 3.186 0 003.186-3.188v-8.547zm-12.791 7.88v-8.028l6.087 4.014-6.087 4.014z" fill="#fff"/></svg>